HIERARCHY
ROOT Hips
{
  OFFSET 5.84602e-005 68.8428 3.50346
  CHANNELS 6 Xposition Yposition Zposition Zrotation Xrotation Yrotation
  JOINT Spine
  {
    OFFSET 0 8.597 -4.6522
    CHANNELS 3 Zrotation Xrotation Yrotation
    JOINT Spine1
    {
      OFFSET 0 7.8454 0.4098
      CHANNELS 3 Zrotation Xrotation Yrotation
      JOINT Spine2
      {
        OFFSET 0 9.7078 -2.1609
        CHANNELS 3 Zrotation Xrotation Yrotation
        JOINT Neck
        {
          OFFSET 0 21.8761 -0.4549
          CHANNELS 3 Zrotation Xrotation Yrotation
          JOINT Head
          {
            OFFSET 0 12.3537 3.3602
            CHANNELS 3 Zrotation Xrotation Yrotation
            End Site
            {
              OFFSET 0.0001 18.9506 0.5657
            }
          }
        }
        JOINT LeftShoulder
        {
          OFFSET 2.2086 21.1115 7.2329
          CHANNELS 3 Zrotation Xrotation Yrotation
          JOINT LeftArm
          {
            OFFSET 13.1193 3.0282 -4.8998
            CHANNELS 3 Zrotation Xrotation Yrotation
            JOINT LeftForeArm
            {
              OFFSET 27.4081 -0.0973053 -0.2375
              CHANNELS 3 Zrotation Xrotation Yrotation
              JOINT LeftHand
              {
                OFFSET 22.8641 0.0662994 -0.1369
                CHANNELS 3 Zrotation Xrotation Yrotation
                JOINT LeftHandIndex1
                {
                  OFFSET 8.8614 0.775009 2.4612
                  CHANNELS 3 Zrotation Xrotation Yrotation
                  JOINT LeftHandIndex2
                  {
                    OFFSET 3.3146 -0.808304 0.5841
                    CHANNELS 3 Zrotation Xrotation Yrotation
                    JOINT LeftHandIndex3
                    {
                      OFFSET 2.2628 -0.552002 0.3989
                      CHANNELS 3 Zrotation Xrotation Yrotation
                      End Site
                      {
                        OFFSET 1.6102 -0.4807 0.2612
                      }
                    }
                  }
                }
                JOINT LeftHandMiddle1
                {
                  OFFSET 8.9937 0.895004 0.2143
                  CHANNELS 3 Zrotation Xrotation Yrotation
                  JOINT LeftHandMiddle2
                  {
                    OFFSET 4.0984 0.0113983 -0.0242
                    CHANNELS 3 Zrotation Xrotation Yrotation
                    JOINT LeftHandMiddle3
                    {
                      OFFSET 2.2716 0.00689697 -0.0138001
                      CHANNELS 3 Zrotation Xrotation Yrotation
                      End Site
                      {
                        OFFSET 2.0404 -0.1441 0.0027
                      }
                    }
                  }
                }
                JOINT LeftHandRing1
                {
                  OFFSET 8.5234 0.597198 -2.0164
                  CHANNELS 3 Zrotation Xrotation Yrotation
                  JOINT LeftHandRing2
                  {
                    OFFSET 3.7188 -0.188293 -0.2328
                    CHANNELS 3 Zrotation Xrotation Yrotation
                    JOINT LeftHandRing3
                    {
                      OFFSET 2.1191 -0.106598 -0.1332
                      CHANNELS 3 Zrotation Xrotation Yrotation
                      End Site
                      {
                        OFFSET 1.8737 -0.2304 -0.0886
                      }
                    }
                  }
                }
                JOINT LeftHandPinky1
                {
                  OFFSET 7.9094 -0.601089 -3.4825
                  CHANNELS 3 Zrotation Xrotation Yrotation
                  JOINT LeftHandPinky2
                  {
                    OFFSET 2.2874 -0.477005 -0.6314
                    CHANNELS 3 Zrotation Xrotation Yrotation
                    JOINT LeftHandPinky3
                    {
                      OFFSET 1.6774 -0.349396 -0.4633
                      CHANNELS 3 Zrotation Xrotation Yrotation
                      End Site
                      {
                        OFFSET 1.4888 -0.4091 -0.3416
                      }
                    }
                  }
                }
                JOINT LeftHandThumb1
                {
                  OFFSET 1.833 -1.3875 1.3896
                  CHANNELS 3 Zrotation Xrotation Yrotation
                  JOINT LeftHandThumb2
                  {
                    OFFSET 3.4129 -1.121 2.5732
                    CHANNELS 3 Zrotation Xrotation Yrotation
                    JOINT LeftHandThumb3
                    {
                      OFFSET 2.2474 -0.804199 1.6192
                      CHANNELS 3 Zrotation Xrotation Yrotation
                      End Site
                      {
                        OFFSET 1.6527 -0.5689 1.1317
                      }
                    }
                  }
                }
              }
            }
          }
        }
        JOINT RightShoulder
        {
          OFFSET -2.2086 21.1115 7.2329
          CHANNELS 3 Zrotation Xrotation Yrotation
          JOINT RightArm
          {
            OFFSET -13.1216 3.0287 -4.9007
            CHANNELS 3 Zrotation Xrotation Yrotation
            JOINT RightForeArm
            {
              OFFSET -27.4081 -0.0973053 -0.2375
              CHANNELS 3 Zrotation Xrotation Yrotation
              JOINT RightHand
              {
                OFFSET -22.8641 0.0664063 -0.1369
                CHANNELS 3 Zrotation Xrotation Yrotation
                JOINT RightHandIndex1
                {
                  OFFSET -8.8614 0.774994 2.4612
                  CHANNELS 3 Zrotation Xrotation Yrotation
                  JOINT RightHandIndex2
                  {
                    OFFSET -3.3146 -0.808304 0.5841
                    CHANNELS 3 Zrotation Xrotation Yrotation
                    JOINT RightHandIndex3
                    {
                      OFFSET -2.2628 -0.552002 0.3989
                      CHANNELS 3 Zrotation Xrotation Yrotation
                      End Site
                      {
                        OFFSET -1.6102 -0.4807 0.2612
                      }
                    }
                  }
                }
                JOINT RightHandMiddle1
                {
                  OFFSET -8.9937 0.894989 0.2143
                  CHANNELS 3 Zrotation Xrotation Yrotation
                  JOINT RightHandMiddle2
                  {
                    OFFSET -4.0984 0.0113983 -0.0242
                    CHANNELS 3 Zrotation Xrotation Yrotation
                    JOINT RightHandMiddle3
                    {
                      OFFSET -2.2716 0.00691223 -0.0138001
                      CHANNELS 3 Zrotation Xrotation Yrotation
                      End Site
                      {
                        OFFSET -2.0404 -0.1441 0.0027
                      }
                    }
                  }
                }
                JOINT RightHandRing1
                {
                  OFFSET -8.5234 0.597198 -2.0164
                  CHANNELS 3 Zrotation Xrotation Yrotation
                  JOINT RightHandRing2
                  {
                    OFFSET -3.7188 -0.188309 -0.2328
                    CHANNELS 3 Zrotation Xrotation Yrotation
                    JOINT RightHandRing3
                    {
                      OFFSET -2.1191 -0.106598 -0.1332
                      CHANNELS 3 Zrotation Xrotation Yrotation
                      End Site
                      {
                        OFFSET -1.8737 -0.2304 -0.0886
                      }
                    }
                  }
                }
                JOINT RightHandPinky1
                {
                  OFFSET -7.9094 -0.601105 -3.4825
                  CHANNELS 3 Zrotation Xrotation Yrotation
                  JOINT RightHandPinky2
                  {
                    OFFSET -2.2874 -0.477005 -0.6314
                    CHANNELS 3 Zrotation Xrotation Yrotation
                    JOINT RightHandPinky3
                    {
                      OFFSET -1.6774 -0.349396 -0.4633
                      CHANNELS 3 Zrotation Xrotation Yrotation
                      End Site
                      {
                        OFFSET -1.4888 -0.4091 -0.3416
                      }
                    }
                  }
                }
                JOINT RightHandThumb1
                {
                  OFFSET -1.833 -1.38751 1.3896
                  CHANNELS 3 Zrotation Xrotation Yrotation
                  JOINT RightHandThumb2
                  {
                    OFFSET -3.41299 -1.12099 2.5732
                    CHANNELS 3 Zrotation Xrotation Yrotation
                    JOINT RightHandThumb3
                    {
                      OFFSET -2.24741 -0.804108 1.6192
                      CHANNELS 3 Zrotation Xrotation Yrotation
                      End Site
                      {
                        OFFSET -1.6527 -0.5689 1.1317
                      }
                    }
                  }
                }
              }
            }
          }
        }
      }
    }
  }
  JOINT RightUpLeg
  {
    OFFSET -9.1966 3.8861 -0.7581
    CHANNELS 3 Zrotation Xrotation Yrotation
    JOINT RightLeg
    {
      OFFSET -0.7359 -41.0265 0
      CHANNELS 3 Zrotation Xrotation Yrotation
      JOINT RightFoot
      {
        OFFSET 0 -40.2855 0
        CHANNELS 3 Zrotation Xrotation Yrotation
        JOINT RightToeBase
        {
          OFFSET 0 -5.6122 11.7359
          CHANNELS 3 Zrotation Xrotation Yrotation
          End Site
          {
            OFFSET 0 0 7.8731
          }
        }
      }
    }
  }
  JOINT LeftUpLeg
  {
    OFFSET 9.1965 3.8864 -0.7581
    CHANNELS 3 Zrotation Xrotation Yrotation
    JOINT LeftLeg
    {
      OFFSET 0.7359 -41.0268 0
      CHANNELS 3 Zrotation Xrotation Yrotation
      JOINT LeftFoot
      {
        OFFSET 0 -40.2855 0
        CHANNELS 3 Zrotation Xrotation Yrotation
        JOINT LeftToeBase
        {
          OFFSET 0 -5.6122 11.7359
          CHANNELS 3 Zrotation Xrotation Yrotation
          End Site
          {
            OFFSET 0 0 7.8731
          }
        }
      }
    }
  }
}
MOTION
Frames:	7
Frame Time:	0.0333333
5.84602e-005 68.8428 3.50346 0 0 -0 0 0 -0 0 0 -0 0 0 -0 0 0 -0 0 0 -0 0 0 -0 0 0 -0 0 0 -0 0 0 -0 0 0 -0 0 0 -0 0 0 -0 0 0 -0 -0.0146107 -8.87603e-005 -2.63497e-007 2.99804e-018 -2.42657e-020 -1.42182e-022 0 0 -0 -0.0187562 -0.001176 5.858e-005 5.06224e-018 3.88251e-019 1.21329e-020 0 0 -0 -0.012269 -0.00324817 0.000675346 -1.74678e-018 3.88251e-019 -0 0 0 -0 0 0 -0 0 0 -0 0 0 -0 0 0 -0 0 0 -0 0 0 -0 0 0 -0 0 0 -0 0 0 -0 0 0 -0 0.0149955 -9.10982e-005 2.64101e-007 -9.69331e-018 1.21329e-020 -4.7394e-023 0 0 -0 0.0189956 -0.00119102 -5.96516e-005 -5.41541e-019 0 2.42657e-020 0 0 -0 0.0122698 -0.00324857 -0.000673756 -2.00796e-019 0 -1.94126e-019 0 0 -0 0 0 -0 0 0 -0 3.39842 1.33031 -0.0637918 -5.65207e-008 0.834868 -0.000436188 -3.39935 -2.16518 -0.0642563 -8.89002e-024 -1.18485e-023 -1.48106e-024 -3.39844 1.35642 0.0640283 -3.18788e-007 0.782166 -0.000588827 3.39931 -2.13858 0.0634662 1.1399e-023 0 -0 
0.665175 40.1001 -19.4574 120.476 -60.3704 -0.348704 -0.05675 -0.101928 -0.0894861 -0.113623 -0.203717 -0.179068 -0.113638 -0.203719 -0.179066 2.45248e-005 -0.238315 -5.47614e-006 4.35085e-006 -0.272699 -1.3748e-006 -4.06821 -0.104504 -0.159017 1.55486 -2.32052 -36.3691 9.9667 -10.0554 -21.1618 40.292 0.0616564 0.0815033 -3.18055e-015 7.95139e-016 -3.97569e-016 3.18055e-015 3.18055e-015 -7.95139e-016 5.51738e-033 7.95139e-016 -3.97569e-016 -3.18055e-015 7.95139e-016 -3.97569e-016 -0.0146377 -9.11221e-005 9.38562e-007 3.18055e-015 7.95139e-016 -0 -3.18055e-015 7.95139e-016 -3.97569e-016 -0.0186608 -0.00118155 6.08625e-005 5.51738e-033 7.95139e-016 -3.97569e-016 -3.18055e-015 7.95139e-016 -3.97569e-016 -0.0122656 -0.00325525 0.000677702 3.18055e-015 -1.59028e-015 -0 -3.18055e-015 7.95139e-016 -3.97569e-016 3.18055e-015 3.18055e-015 -7.95139e-016 5.51738e-033 7.95139e-016 -3.97569e-016 4.06649 -0.104894 0.159819 -1.55663 -2.32123 36.3601 -9.96854 -10.0553 21.1595 -40.2956 0.0597173 -0.0820117 6.36111e-015 7.95139e-015 -4.37326e-015 -3.18055e-015 1.03368e-014 -7.55382e-015 -5.95877e-031 7.15625e-015 4.77083e-015 6.36111e-015 7.95139e-015 -4.37326e-015 0.0149906 -9.27029e-005 -5.28721e-006 -3.18055e-015 3.18055e-015 4.37326e-015 6.36111e-015 7.95139e-015 -4.37326e-015 0.0189568 -0.00118572 -5.94914e-005 3.31043e-032 7.95139e-016 -2.38542e-015 6.36111e-015 7.95139e-015 -4.37326e-015 0.0122312 -0.00323517 -0.000673201 -6.36111e-015 1.59028e-015 -3.18055e-015 6.36111e-015 7.95139e-015 -4.37326e-015 -3.18055e-015 1.03368e-014 -7.55382e-015 -5.95877e-031 7.15625e-015 4.77083e-015 -85.3384 -80.1853 -99.7997 -108.404 87.4398 108.58 -6.66129 33.0569 1.49679 -3.20309e-006 6.92965e-007 -6.47679e-008 80.7179 -79.8468 94.9168 120.934 87.1699 -121.37 6.33425 31.6349 -1.47865 6.97968e-007 -6.38726e-008 2.99737e-006 
0.685617 15.8672 -36.0451 13.8078 -84.0235 -177.417 -0.0900567 -0.150039 -0.141642 -0.180475 -0.299901 -0.283496 -0.18047 -0.299926 -0.2835 0.000128433 -0.474905 0.000315259 -1.49006e-006 -0.492637 2.38151e-007 -6.52343 0.0148492 -0.954893 1.30212 -2.47044 -57.0652 12.2704 -14.1601 -33.6697 63.8897 -0.11632 -0.153991 6.46188e-007 5.43149e-007 -9.16414e-008 2.37867e-006 -2.06077e-007 -3.61731e-007 -1.03039e-007 -1.18934e-006 2.41727e-009 6.46188e-007 5.43149e-007 -9.16414e-008 -0.014601 -8.81738e-005 4.57839e-007 3.87283e-007 -1.38839e-006 3.52796e-006 6.46188e-007 5.43149e-007 -9.16414e-008 -0.0187604 -0.00117818 5.07176e-005 -1.0301e-007 -1.18934e-006 2.2235e-009 6.46188e-007 5.43149e-007 -9.16414e-008 -0.0122873 -0.00325603 0.000684654 3.87064e-007 -1.3879e-006 3.52789e-006 6.46188e-007 5.43149e-007 -9.16414e-008 2.37867e-006 -2.06077e-007 -3.61731e-007 -1.03039e-007 -1.18934e-006 2.41727e-009 6.51891 0.0152004 0.945839 -1.30626 -2.47216 57.0728 -12.2757 -14.1615 33.6646 -63.8923 -0.11264 0.154969 6.25809e-008 3.29645e-007 -5.86246e-006 1.33916e-007 7.24811e-007 -3.755e-006 6.25809e-008 3.29645e-007 -5.86246e-006 6.25809e-008 3.29645e-007 -5.86246e-006 0.014989 -9.08903e-005 2.42822e-006 -9.93923e-016 -2.38542e-015 1.59028e-015 6.25809e-008 3.29645e-007 -5.86246e-006 0.0189945 -0.00119057 -5.01634e-005 0 1.49089e-016 -0 6.25809e-008 3.29645e-007 -5.86246e-006 0.0122752 -0.00325001 -0.000669262 -9.93923e-016 -4.96962e-017 1.59028e-015 6.25809e-008 3.29645e-007 -5.86246e-006 1.33916e-007 7.24811e-007 -3.755e-006 6.25809e-008 3.29645e-007 -5.86246e-006 -150.871 -35.069 -166.257 -173.911 37.3491 169.167 -8.5452 53.6953 0.591366 -6.70536e-007 -5.21425e-007 -1.84116e-006 151.036 -35.3682 166.932 173.75 37.998 -168.654 8.56413 54.148 -0.405985 2.11055e-007 -1.08474e-006 -1.52961e-006 
0.165962 19.011 -35.4139 7.93758 -87.345 -174.683 -0.0862137 -0.113179 -0.134782 -0.172691 -0.226127 -0.269735 -0.172691 -0.226123 -0.269735 -0.000196669 -0.712619 -0.000319254 1.68158e-007 -0.629705 2.40752e-007 -6.4233 0.483998 -2.75302 1.31839 -2.56834 -53.0592 11.6365 -13.5094 -30.8152 61.2437 -0.670774 -0.887702 -2.26542e-007 1.21798e-007 -3.50489e-006 7.15083e-008 1.91003e-007 -6.11432e-006 -1.58309e-007 4.00668e-008 -3.51206e-006 -2.26542e-007 1.21798e-007 -3.50489e-006 -0.0145875 -8.82718e-005 1.12019e-006 6.82323e-008 -8.17307e-008 -7.1802e-009 -2.26542e-007 1.21798e-007 -3.50489e-006 -0.0187604 -0.001176 6.07758e-005 6.82321e-008 -8.17304e-008 -7.18381e-009 -2.26542e-007 1.21798e-007 -3.50489e-006 -0.0122655 -0.00324778 0.000682236 -1.60002e-007 4.00216e-008 -3.51196e-006 -2.26542e-007 1.21798e-007 -3.50489e-006 7.15083e-008 1.91003e-007 -6.11432e-006 -1.58309e-007 4.00668e-008 -3.51206e-006 6.41285 0.486658 2.71472 -1.32664 -2.57195 53.1231 -11.6468 -13.5136 30.8065 -61.2384 -0.649502 0.893221 7.72434e-032 1.39149e-015 -3.18055e-015 9.93129e-032 1.19271e-015 -4.77083e-015 6.62086e-032 7.95139e-016 -4.77083e-015 7.72434e-032 1.39149e-015 -3.18055e-015 0.0149783 -9.12637e-005 -2.90118e-006 1.59028e-015 -6.36111e-015 -1.59028e-015 7.72434e-032 1.39149e-015 -3.18055e-015 0.0189929 -0.00119072 -5.86329e-005 -1.59028e-015 2.78299e-014 6.36111e-015 7.72434e-032 1.39149e-015 -3.18055e-015 0.0123007 -0.00325586 -0.000672859 -1.59028e-015 0 -1.59028e-015 7.72434e-032 1.39149e-015 -3.18055e-015 9.93129e-032 1.19271e-015 -4.77083e-015 6.62086e-032 7.95139e-016 -4.77083e-015 -148.187 -42.4642 -163.729 -173.365 43.7475 169.514 -9.07326 50.5386 1.16462 -1.63018e-006 3.15363e-006 -2.59944e-007 148.248 -42.5168 163.885 173.323 43.9033 -169.405 9.09203 50.6717 -1.14154 -1.35914e-007 5.81976e-008 -4.00305e-007 
0.0147877 19.9456 -35.2751 5.90894 -87.8386 -173.852 -0.0851205 -0.0827483 -0.132358 -0.170431 -0.164837 -0.264839 -0.170431 -0.16486 -0.264839 -0.000177692 -0.948446 -0.000269822 -5.57168e-008 -0.772808 1.80599e-007 -6.49533 0.936079 -4.48453 1.30231 -2.62104 -50.8449 11.1246 -13.1339 -29.095 60.4998 -1.20124 -1.58397 -1.59028e-015 2.5842e-015 -3.18055e-015 -1.59028e-015 2.5842e-015 -0 -1.59028e-015 2.38542e-015 -0 -1.59028e-015 2.5842e-015 -3.18055e-015 -0.0146218 -8.94089e-005 8.60729e-007 -1.11319e-014 3.97569e-015 6.36111e-015 -1.59028e-015 2.5842e-015 -3.18055e-015 -0.0187402 -0.00117578 6.43631e-005 -2.51504e-007 -7.51597e-007 6.12493e-006 -1.59028e-015 2.5842e-015 -3.18055e-015 -0.0122723 -0.00324937 0.000680727 -3.18055e-015 2.78299e-015 -3.18055e-015 -1.59028e-015 2.5842e-015 -3.18055e-015 -1.59028e-015 2.5842e-015 -0 -1.59028e-015 2.38542e-015 -0 6.48002 0.940722 4.41924 -1.31469 -2.62658 50.9626 -11.1399 -13.1409 29.0828 -60.4872 -1.16314 1.59394 1.09785e-006 -7.49397e-008 -8.82852e-006 5.49912e-007 6.49778e-007 -4.07341e-008 1.59028e-015 1.78906e-015 1.59028e-015 1.09785e-006 -7.49397e-008 -8.82852e-006 0.0149982 -9.0622e-005 -4.10942e-006 1.59028e-015 1.98785e-016 3.18055e-015 1.09785e-006 -7.49397e-008 -8.82852e-006 0.019006 -0.00119054 -5.89091e-005 3.18055e-015 -2.88238e-014 6.36111e-015 1.09785e-006 -7.49397e-008 -8.82852e-006 0.0122843 -0.00325215 -0.000694014 -3.18055e-015 -7.35503e-015 -1.59028e-015 1.09785e-006 -7.49397e-008 -8.82852e-006 5.49912e-007 6.49778e-007 -4.07341e-008 1.59028e-015 1.78906e-015 1.59028e-015 -146.509 -45.4256 -162.025 -173.164 45.9067 169.588 -9.42928 49.3482 1.46538 6.75589e-008 3.23165e-008 1.99855e-007 146.51 -45.4281 162.013 173.166 45.8925 -169.601 9.42278 49.3326 -1.46734 2.39221e-006 1.02065e-006 2.76125e-007 
0.0135919 19.7165 -35.2635 3.89172 -86.9211 -175.881 -0.0854071 -0.0549136 -0.132059 -0.17094 -0.109631 -0.2642 -0.170941 -0.10961 -0.2642 -0.000129932 -1.18452 -0.000185502 1.02682e-007 -0.91903 4.81556e-008 -6.64842 1.38214 -6.18599 1.27231 -2.66474 -49.5256 10.6963 -12.9263 -27.9347 60.7046 -1.72111 -2.26104 -5.99246e-007 5.69541e-008 -3.75926e-010 5.69541e-008 5.99246e-007 4.60945e-008 -5.99246e-007 5.69542e-008 -3.75932e-010 -5.99246e-007 5.69541e-008 -3.75926e-010 -0.014619 -8.81e-005 -1.39523e-006 -5.9924e-007 5.69542e-008 -3.68191e-010 -5.99246e-007 5.69541e-008 -3.75926e-010 -0.0187497 -0.001175 5.80461e-005 -5.99239e-007 5.69549e-008 -3.60489e-010 -5.99246e-007 5.69541e-008 -3.75926e-010 -0.0122685 -0.0032475 0.000676019 -5.99241e-007 5.6959e-008 -3.531e-010 -5.99246e-007 5.69541e-008 -3.75926e-010 5.69541e-008 5.99246e-007 4.60945e-008 -5.99246e-007 5.69542e-008 -3.75932e-010 6.62846 1.38848 6.09411 -1.28862 -2.67181 49.696 -10.7166 -12.9358 27.919 -60.6851 -1.66652 2.27542 -5.89247e-008 -3.30916e-007 -6.02403e-006 7.49052e-007 -3.48877e-007 -3.56752e-006 -5.89246e-008 -3.30916e-007 -6.02403e-006 -5.89247e-008 -3.30916e-007 -6.02403e-006 0.014987 -9.14577e-005 3.14767e-006 2.68117e-007 -6.0633e-007 -5.99831e-006 -5.89247e-008 -3.30916e-007 -6.02403e-006 0.0189941 -0.00119104 -5.48845e-005 2.68551e-007 -6.06674e-007 -5.99829e-006 -5.89247e-008 -3.30916e-007 -6.02403e-006 0.0122439 -0.00324264 -0.000676623 2.67619e-007 -6.06571e-007 -5.99841e-006 -5.89247e-008 -3.30916e-007 -6.02403e-006 7.49052e-007 -3.48877e-007 -3.56752e-006 -5.89246e-008 -3.30916e-007 -6.02403e-006 -145.49 -46.2397 -160.916 -173.161 45.9184 169.592 -9.76139 49.0459 1.6703 -1.13549e-006 2.05517e-006 -7.93698e-008 145.492 -46.2428 160.904 173.163 45.9052 -169.605 9.75403 49.0303 -1.6709 -6.75914e-008 3.34441e-008 -1.99651e-007 
0.0124349 19.5291 -35.3917 2.80321 -86.0006 -176.981 -0.085765 -0.0272733 -0.131871 -0.171594 -0.0543488 -0.263783 -0.171594 -0.0543615 -0.263783 0.000310788 -1.42167 0.000460703 2.46055e-007 -1.06528 1.61253e-007 -6.78833 1.83421 -7.89225 1.24321 -2.70921 -48.2035 10.2632 -12.7267 -26.7713 60.9035 -2.24383 -2.93705 2.709e-007 -3.28332e-007 -2.26239e-008 -0 0 1.59028e-015 -5.48953e-007 -7.44548e-008 9.63295e-006 2.709e-007 -3.28332e-007 -2.26239e-008 -0.0146181 -8.95734e-005 2.12419e-006 -5.48822e-007 -7.56829e-008 9.63294e-006 2.709e-007 -3.28332e-007 -2.26239e-008 -0.0187642 -0.00117564 5.76474e-005 -5.48696e-007 -7.6022e-008 9.63294e-006 2.709e-007 -3.28332e-007 -2.26239e-008 -0.012275 -0.00324875 0.000678276 -5.48577e-007 -7.5456e-008 9.63295e-006 2.709e-007 -3.28332e-007 -2.26239e-008 -0 0 1.59028e-015 -5.48953e-007 -7.44548e-008 9.63295e-006 6.76458 1.84212 7.77466 -1.26353 -2.71764 48.427 -10.2885 -12.7388 26.7523 -60.8773 -2.17267 2.95601 8.32331e-008 -4.08592e-008 -5.23343e-006 5.99803e-007 5.1182e-008 5.84726e-009 8.32332e-008 -4.08593e-008 -5.23343e-006 8.32331e-008 -4.08592e-008 -5.23343e-006 0.0150205 -9.11718e-005 -7.09207e-006 8.38069e-008 -4.15487e-008 -5.23342e-006 8.32331e-008 -4.08592e-008 -5.23343e-006 0.0189857 -0.0011893 -5.58977e-005 8.39093e-008 -4.1772e-008 -5.23342e-006 8.32331e-008 -4.08592e-008 -5.23343e-006 0.0122394 -0.00323916 -0.00067134 8.35563e-008 -4.15424e-008 -5.23345e-006 8.32331e-008 -4.08592e-008 -5.23343e-006 5.99803e-007 5.1182e-008 5.84726e-009 8.32332e-008 -4.08593e-008 -5.23343e-006 -144.432 -47.0406 -159.768 -173.158 45.9303 169.597 -10.0899 48.7432 1.87141 -1.01771e-007 -4.87995e-008 -2.99584e-007 144.435 -47.0445 159.756 173.159 45.918 -169.609 10.0816 48.7273 -1.8706 -3.38701e-008 1.67462e-008 -9.97967e-008 
